#tb 0: 1/15
0,          0,          0,        1,   230400, 0x4aec80a3
0,          1,          1,        1,   230400, 0xb6c41452
0,          2,          2,        1,   230400, 0xa6c27f12
0,          3,          3,        1,   230400, 0x309bd2d2
0,          4,          4,        1,   230400, 0x597a7341
0,          5,          5,        1,   230400, 0x597a7341
0,          6,          6,        1,   230400, 0xd6d6c569
0,          7,          7,        1,   230400, 0x31413d89
0,          8,          8,        1,   230400, 0x464e42e9
0,          9,          9,        1,   230400, 0x502d7c71
0,         10,         10,        1,   230400, 0x502d7c71
0,         11,         11,        1,   230400, 0xc96f23d1
0,         12,         12,        1,   230400, 0xc96f23d1
0,         13,         13,        1,   230400, 0x5bfd2bc7
0,         14,         14,        1,   230400, 0x821640a7
0,         15,         15,        1,   230400, 0x8f001967
0,         16,         16,        1,   230400, 0x406ba109
0,         17,         17,        1,   230400, 0x85d99b50
0,         18,         18,        1,   230400, 0x2fdb4018
0,         19,         19,        1,   230400, 0xfa127259
0,         20,         20,        1,   230400, 0xe6427b9b
0,         21,         21,        1,   230400, 0xe6427b9b
0,         22,         22,        1,   230400, 0x3a279000
0,         23,         23,        1,   230400, 0x710755ee
0,         24,         24,        1,   230400, 0x76549d35
0,         25,         25,        1,   230400, 0xf4d0132c
0,         26,         26,        1,   230400, 0xf4d0132c
0,         27,         27,        1,   230400, 0x19d7ec14
0,         28,         28,        1,   230400, 0x19d7ec14
0,         29,         29,        1,   230400, 0x5f24b7e1
